<svg width="560" height="150" viewBox="0 0 560 150" fill="none" xmlns="http://www.w3.org/2000/svg" role="img" aria-labelledby="title desc">
  <title id="title">RS Voyagers Tour and Travel Logo</title>
  <desc id="desc">A blue travel logo with a light line-art bus, large RS letters, and Tour and Travel text.</desc>
  <defs>
    <linearGradient id="bg" x1="0" y1="0" x2="560" y2="150" gradientUnits="userSpaceOnUse">
      <stop stop-color="#356CA7"/>
      <stop offset="0.55" stop-color="#215B96"/>
      <stop offset="1" stop-color="#154C86"/>
    </linearGradient>
    <linearGradient id="shine" x1="30" y1="15" x2="530" y2="140" gradientUnits="userSpaceOnUse">
      <stop stop-color="#AEE6F0" stop-opacity="0.28"/>
      <stop offset="1" stop-color="#AEE6F0" stop-opacity="0"/>
    </linearGradient>
    <filter id="softShadow" x="-8%" y="-20%" width="116%" height="140%" color-interpolation-filters="sRGB">
      <feDropShadow dx="0" dy="8" stdDeviation="8" flood-color="#082B5F" flood-opacity="0.22"/>
    </filter>
  </defs>

  <rect x="8" y="8" width="544" height="134" rx="18" fill="url(#bg)" filter="url(#softShadow)"/>
  <rect x="14" y="14" width="532" height="122" rx="14" stroke="#C7F2F7" stroke-opacity="0.24"/>
  <path d="M32 118C83 96 159 94 211 115C258 134 337 130 529 105" stroke="#AEE6F0" stroke-opacity="0.16" stroke-width="11" stroke-linecap="round"/>
  <path d="M27 121H532" stroke="#C7F2F7" stroke-opacity="0.34" stroke-width="3" stroke-linecap="round"/>

  <g stroke="#C7F2F7" stroke-linecap="round" stroke-linejoin="round">
    <path d="M46 83C45.4 70 49.8 59.1 60 51.5C70.5 43.7 90.5 41.5 106.5 43.3C119.5 44.7 135.2 49.2 148.5 53.4" stroke-width="5"/>
    <path d="M56 55.5C69 51 83.3 49.6 97 50.5C113 51.5 130.8 56.3 149 62.7" stroke-width="3.2" stroke-opacity="0.78"/>
    <path d="M48.3 82.4L55.4 66.2C57.9 60.4 63.5 56.7 69.8 56.6L129.4 55.8C139.8 55.7 148.6 63.3 150.1 73.6L153.6 97.8H52.2C48.9 97.8 46.2 95.1 46.2 91.8V88.6C46.2 86.5 47 84.4 48.3 82.4Z" stroke-width="4"/>
    <path d="M65.5 65.8H90.5L85.8 82.5H57.5L65.5 65.8Z" stroke-width="3.3"/>
    <path d="M98.8 65.5H123.6C129.4 65.5 134.5 69.2 136.2 74.7L138.6 82.5H96.1L98.8 65.5Z" stroke-width="3.3"/>
    <path d="M47.5 88.8H73.8" stroke-width="3"/>
    <path d="M46.8 96.7H153" stroke-width="4"/>
    <path d="M54.5 78.8H66.3" stroke-width="3"/>
    <path d="M39 99.5C44.5 103.1 58.4 104 70 100.3" stroke-width="3" stroke-opacity="0.58"/>
    <circle cx="72.5" cy="99.5" r="8.8" stroke-width="4"/>
    <circle cx="72.5" cy="99.5" r="3.1" fill="#C7F2F7" stroke="none"/>
    <circle cx="133.5" cy="99.5" r="8.8" stroke-width="4"/>
    <circle cx="133.5" cy="99.5" r="3.1" fill="#C7F2F7" stroke="none"/>
  </g>

  <text x="170" y="84" fill="#C7F2F7" font-family="Georgia, 'Times New Roman', serif" font-size="67" font-weight="700" letter-spacing="-5">RS</text>
  <path d="M195 87C201 109 226 116 265 101" stroke="#C7F2F7" stroke-width="4" stroke-linecap="round"/>
  <text x="260" y="86" fill="#C7F2F7" font-family="Georgia, 'Times New Roman', serif" font-size="29" font-weight="700">Tour and Travel</text>
  <text x="169" y="113" fill="#DDF8FB" fill-opacity="0.9" font-family="'Plus Jakarta Sans', 'Segoe UI', Arial, sans-serif" font-size="16" font-weight="700" letter-spacing="2">RS VOYAGERS</text>
</svg>
